<?xml version="1.0" encoding="UTF-8" standalone="no"?>
<svg
   viewBox="0 0 36 36"
   version="1.1"
   id="svg2"
   xml:space="preserve"
   xmlns="http://www.w3.org/2000/svg"
   xmlns:svg="http://www.w3.org/2000/svg"><defs
     id="defs2" /><g
     id="g2"
     transform="translate(-6.9990769,-1.0087583)"
     style="display:inline;mix-blend-mode:normal"><path
       id="circle1-7"
       d="m 21,32 c 0,1.656854 -1.343146,3 -3,3 -1.656854,0 -3,-1.343146 -3,-3 0,-1.656854 1.343146,-3 3,-3 1.656854,0 3,1.343146 3,3 z m 7.998154,0 c 0,1.656854 1.343146,3 3,3 1.656854,0 3,-1.343146 3,-3 0,-1.656854 -1.343146,-3 -3,-3 -1.656854,0 -3,1.343146 -3,3 z"
       style="fill:#be1931;fill-opacity:1" /><path
       fill="#BE1931"
       d="m 21,24 c 0,1.657 -1.344,3 -3,3 -1.657,0 -3,-1.343 -3,-3 V 5 c 0,-1.657 1.343,-3 3,-3 1.656,0 3,1.343 3,3 z m 7.998154,0 c 0,1.657 1.344,3 3,3 1.657,0 3,-1.343 3,-3 V 5 c 0,-1.657 -1.343,-3 -3,-3 -1.656,0 -3,1.343 -3,3 z"
       id="path1-8"
       style="fill:#be1931;fill-opacity:1" /><g
       id="g3"
       transform="matrix(0.79378576,0,0,-0.77212762,-18.029604,19.869535)"><path
         id="path30"
         style="fill:#ffffff;fill-opacity:1;fill-rule:nonzero;stroke:#be1931;stroke-width:0.616781;stroke-opacity:1"
         d="m 51.551001,21.972496 c 0,-1.192237 -0.966495,-2.158732 -2.158732,-2.158732 -1.192237,0 -2.158732,0.966495 -2.158732,2.158732 0,1.192237 0.966495,2.158732 2.158732,2.158732 1.192237,0 2.158732,-0.966495 2.158732,-2.158732 m -12.322838,0 c 0,-1.192237 0.966495,-2.158732 2.158732,-2.158732 1.192237,0 2.158732,0.966495 2.158732,2.158732 0,1.192237 -0.966495,2.158732 -2.158732,2.158732 -1.192237,0 -2.158732,-0.966495 -2.158732,-2.158732 m 17.634675,0 c 0,-1.192237 0.966495,-2.158732 2.158732,-2.158732 1.192237,0 2.158732,0.966495 2.158732,2.158732 0,1.192237 -0.966495,2.158732 -2.158732,2.158732 -1.192237,0 -2.158732,-0.966495 -2.158732,-2.158732 m 12.322838,0 c 0,-1.192237 -0.966495,-2.158732 -2.158732,-2.158732 -1.192237,0 -2.158732,0.966495 -2.158732,2.158732 0,1.192237 0.966495,2.158732 2.158732,2.158732 1.192237,0 2.158732,-0.966495 2.158732,-2.158732" /><path
         id="path34"
         style="fill:#292f33;fill-opacity:1;fill-rule:nonzero;stroke:none;stroke-width:0.616781"
         d="m 50.31744,21.972496 c 0,-0.511311 -0.41386,-0.925171 -0.925171,-0.925171 -0.511311,0 -0.925171,0.41386 -0.925171,0.925171 0,0.511311 0.41386,0.925171 0.925171,0.925171 0.511311,0 0.925171,-0.41386 0.925171,-0.925171 m -9.855716,0 c 0,-0.511311 0.41386,-0.925171 0.925171,-0.925171 0.511311,0 0.925171,0.41386 0.925171,0.925171 0,0.511311 -0.41386,0.925171 -0.925171,0.925171 -0.511311,0 -0.925171,-0.41386 -0.925171,-0.925171 m 17.634675,0 c 0,-0.511311 0.41386,-0.925171 0.925171,-0.925171 0.511311,0 0.925171,0.41386 0.925171,0.925171 0,0.511311 -0.41386,0.925171 -0.925171,0.925171 -0.511311,0 -0.925171,-0.41386 -0.925171,-0.925171 m 9.855716,0 c 0,-0.511311 -0.41386,-0.925171 -0.925171,-0.925171 -0.511311,0 -0.925171,0.41386 -0.925171,0.925171 0,0.511311 0.41386,0.925171 0.925171,0.925171 0.511311,0 0.925171,-0.41386 0.925171,-0.925171" /></g></g></svg>
