<?xml version="1.0" encoding="UTF-8" standalone="no"?>
<svg
   viewBox="0 0 36 36"
   version="1.1"
   id="svg1"
   xmlns="http://www.w3.org/2000/svg"
   xmlns:svg="http://www.w3.org/2000/svg">
  <defs
     id="defs1" />
  <path
     fill="#BE1931"
     d="M17 27c-1.657 0-3-1.343-3-3v-4c0-1.657 1.343-3 3-3 .603-.006 6-1 6-5 0-2-2-4-5-4-2.441 0-4 2-4 3 0 1.657-1.343 3-3 3s-3-1.343-3-3c0-4.878 4.58-9 10-9 8 0 11 5.982 11 11 0 4.145-2.277 7.313-6.413 8.92-.9.351-1.79.587-2.587.747V24c0 1.657-1.343 3-3 3z"
     id="path1"
     style="fill:#be1931;fill-opacity:1" />
  <circle
     fill="#BE1931"
     cx="17"
     cy="32"
     r="3"
     id="circle1"
     style="fill:#be1931;fill-opacity:1" />
  <g
     id="g3"
     transform="matrix(1.282829,0,0,-1.2478275,-53.438062,32.006856)">
    <path
       id="path30"
       style="fill:#ffffff;fill-opacity:1;fill-rule:nonzero;stroke:#be1931;stroke-width:0.616781;stroke-opacity:1"
       d="m 51.551001,21.972496 c 0,-1.192237 -0.966495,-2.158732 -2.158732,-2.158732 -1.192237,0 -2.158732,0.966495 -2.158732,2.158732 0,1.192237 0.966495,2.158732 2.158732,2.158732 1.192237,0 2.158732,-0.966495 2.158732,-2.158732 m 8.273812,0 c 0,-1.192237 0.966495,-2.158732 2.158732,-2.158732 1.192237,0 2.158732,0.966495 2.158732,2.158732 0,1.192237 -0.966495,2.158732 -2.158732,2.158732 -1.192237,0 -2.158732,-0.966495 -2.158732,-2.158732" />
    <path
       id="path34"
       style="fill:#292f33;fill-opacity:1;fill-rule:nonzero;stroke:none;stroke-width:0.616781"
       d="m 50.31744,21.972496 c 0,-0.511311 -0.41386,-0.925171 -0.925171,-0.925171 -0.511311,0 -0.925171,0.41386 -0.925171,0.925171 0,0.511311 0.41386,0.925171 0.925171,0.925171 0.511311,0 0.925171,-0.41386 0.925171,-0.925171 m 10.740934,0 c 0,-0.511311 0.41386,-0.925171 0.925171,-0.925171 0.511311,0 0.925171,0.41386 0.925171,0.925171 0,0.511311 -0.41386,0.925171 -0.925171,0.925171 -0.511311,0 -0.925171,-0.41386 -0.925171,-0.925171" />
  </g>
</svg>
